# xmcd CD database file
#
# Track frame offsets:
#	150
#	28475
#	52093
#	72493
#	88122
#	109748
#	125373
#	137651
#	154866
#	168355
#	184223
#	203554
#	227332
#	242227
#	260484
#
# Disc length: 3907 seconds
#
# Revision: 0
# Processed by: cddbd v1.5.2PL0 Copyright (c) Steve Scherf et al.
# Submitted via: Feurio! 1.68 - http://www.feurio.com
#
DISCID=d70f410f
DTITLE=Various Artist - More Good Whiskey Blues
DYEAR=1900
DGENRE=
TTITLE0=Metro Blues All Stars - Devil gets his Due
TTITLE1=Tim Wagoner and Wild Blue Yonder - Make it Rain
TTITLE2=Hypnotics - Blues Patrol
TTITLE3=Dean Hall - I Know something 'bout the Blues
TTITLE4=Metro Blues All Stars - Strom Comin' Thru'
TTITLE5=Planet Rockers - Tennessee Woman
TTITLE6=Chip Vandiver - Love ain't never Satisfied
TTITLE7=Dean Hall - My Milkman was Freddy King
TTITLE8=Metro Blues All Stars - I would do for you
TTITLE9=Buddy Flett and the Bluebirds - Blues in a Honkey Tonk Key
TTITLE10=Johnny Neel - While she's in Love
TTITLE11=Metro Blues All Stars - Bad Situation
TTITLE12=Buddy Flett and the Bluebirds - Third House on the left
TTITLE13=Tim Wagoner and Wild Blue Yonder - My Old Friens the Blues
TTITLE14=Lost in Detroit - I Want to make Love to you
EXTD=
EXTT0=
EXTT1=
EXTT2=
EXTT3=
EXTT4=
EXTT5=
EXTT6=
EXTT7=
EXTT8=
EXTT9=
EXTT10=
EXTT11=
EXTT12=
EXTT13=
EXTT14=
PLAYORDER=
